<svg id="Слой_1" data-name="Слой 1" xmlns="http://www.w3.org/2000/svg" viewBox="0 0 512 512"><defs><style>.cls-1{fill:#d9e2e9;}.cls-2{fill:#f0f5f9;}.cls-3{fill:#ef5361;}.cls-4{fill:#22c396;}.cls-5{fill:#09bc8a;}.cls-6{fill:#2f3a5a;}.cls-7{fill:#00b2ff;}.cls-8{fill:#fff;}</style></defs><path class="cls-1" d="M457.13,445.19,322.5,231V28.32h-133V231L54.87,445.19a25.11,25.11,0,0,0,21.26,38.49H435.87a25.11,25.11,0,0,0,21.26-38.49Z"/><path class="cls-2" d="M457.13,445.19,322.5,231V28.32h-133V231L54.87,445.19a25.11,25.11,0,0,0,21.26,38.49H435.87a25.11,25.11,0,0,0,21.26-38.49Z"/><path class="cls-1" d="M366.68,301.27,322.51,231V28.33H285.67V231l44.18,70.28Z"/><path class="cls-3" d="M457.13,445.19,362.45,294.55H149.55L54.87,445.19a25.11,25.11,0,0,0,21.26,38.49H435.87a25.11,25.11,0,0,0,21.26-38.49Z"/><path class="cls-4" d="M435.85,483.68H76.14a25.13,25.13,0,0,1-21.28-38.5l94.71-150.63H362.43l94.71,150.63a25.15,25.15,0,0,1-21.29,38.5Z"/><path class="cls-5" d="M435.85,483.68H400.74A25.13,25.13,0,0,0,422,445.18L327.36,294.55h35.06l94.71,150.63a25.15,25.15,0,0,1-21.28,38.5Z"/><path class="cls-6" d="M435.87,487.29H76.13a28.73,28.73,0,0,1-24.32-44L185.89,229.94V28.32a3.61,3.61,0,0,1,3.61-3.61h133a3.61,3.61,0,0,1,3.61,3.61V229.94L460.19,443.26a28.72,28.72,0,0,1-24.32,44ZM193.12,31.94V231a3.58,3.58,0,0,1-.56,1.93L57.93,447.11a21.49,21.49,0,0,0,18.2,32.95H435.87a21.51,21.51,0,0,0,18.21-32.94L319.44,232.91a3.66,3.66,0,0,1-.55-1.93v-199Z"/><path class="cls-2" d="M327.51,28.32h-143a14.33,14.33,0,0,0,0,28.65h143a14.33,14.33,0,0,0,0-28.65Z"/><path class="cls-6" d="M327.51,60.58h-143a17.94,17.94,0,1,1,0-35.87h143a17.94,17.94,0,0,1,0,35.87Zm-143-28.64a10.71,10.71,0,1,0,0,21.41h143a10.71,10.71,0,1,0,0-21.41h-143Z"/><path class="cls-6" d="M239.39,97.84h-26.9a3.62,3.62,0,1,1,0-7.23h26.9a3.62,3.62,0,1,1,0,7.23Z"/><path class="cls-6" d="M225.94,131.56H212.49a3.62,3.62,0,1,1,0-7.23h13.45a3.62,3.62,0,1,1,0,7.23Z"/><path class="cls-6" d="M239.39,164.57h-26.9a3.62,3.62,0,1,1,0-7.23h26.9a3.62,3.62,0,1,1,0,7.23Z"/><path class="cls-6" d="M225.94,198.29H212.49a3.62,3.62,0,1,1,0-7.23h13.45a3.62,3.62,0,1,1,0,7.23Z"/><path class="cls-6" d="M239.39,231.31h-26.9a3.61,3.61,0,1,1,0-7.22h26.9a3.61,3.61,0,1,1,0,7.22Z"/><path class="cls-6" d="M225.94,265H212.49a3.61,3.61,0,1,1,0-7.22h13.45a3.61,3.61,0,1,1,0,7.22Z"/><path class="cls-6" d="M239.39,298.05h-26.9a3.62,3.62,0,1,1,0-7.23h26.9a3.62,3.62,0,1,1,0,7.23Z"/><path class="cls-6" d="M225.94,331.77H212.49a3.62,3.62,0,1,1,0-7.23h13.45a3.62,3.62,0,1,1,0,7.23Z"/><path class="cls-6" d="M239.39,364.78h-26.9a3.62,3.62,0,1,1,0-7.23h26.9a3.62,3.62,0,1,1,0,7.23Z"/><path class="cls-6" d="M225.94,398.5H212.49a3.61,3.61,0,1,1,0-7.22h13.45a3.61,3.61,0,1,1,0,7.22Z"/><path class="cls-6" d="M239.39,431.52h-26.9a3.62,3.62,0,1,1,0-7.23h26.9a3.62,3.62,0,1,1,0,7.23Z"/><circle class="cls-7" cx="256" cy="389" r="85"/><path class="cls-8" d="M190.15,382.24h59.29V323.32h12.88v58.92h59.29v13H262.32v58.93H249.44V395.24H190.15Z"/></svg>