<svg xmlns="http://www.w3.org/2000/svg" viewBox="0 0 512 512"><defs><style>.cls-1{fill:#fff;}.cls-2{fill:#00b2ff;}</style></defs><rect class="cls-1" x="46.5" y="46.5" width="419" height="419" rx="6.5"/><path class="cls-2" d="M459,48a5,5,0,0,1,5,5V459a5,5,0,0,1-5,5H53a5,5,0,0,1-5-5V53a5,5,0,0,1,5-5H459m0-3H53a8,8,0,0,0-8,8V459a8,8,0,0,0,8,8H459a8,8,0,0,0,8-8V53a8,8,0,0,0-8-8Z"/><path d="M133.44,253.69q0-28.91,18.4-55.58t43.5-41.42q25.1-14.77,47.47-14.77h3.77A145.83,145.83,0,0,0,189,190.31q-22.74,32-22.73,65.42a72.75,72.75,0,0,0,9.22,35.89q9.24,16.61,31,23h-.91q12.6-52.9,22.1-88.17,11.46-41.32,31.77-65.48T301,136.78q22.94,0,37.07,16.93t14.15,45.35q0,35.08-18.76,63.2t-44.74,42.53a150.27,150.27,0,0,1-53.81,18l-24.8,98.83-32.82,5.71L202.66,326.3q-33.78-5.54-51.5-25.84T133.44,253.69Zm104.28,58.07q49.8-13.67,72.44-63.29,5.55-12.24,11-37t5.45-37.17q0-27.93-23-27.92a23.83,23.83,0,0,0-13.2,3.77,35.51,35.51,0,0,0-9.42,8.57,60,60,0,0,0-7,13.56,121.21,121.21,0,0,0-4.84,14.3q-1.39,5.53-3.95,15.73t-3.38,13.5Z"/><path d="M388.11,83.4a24.1,24.1,0,0,1,16.08-6.48c11.64,0,18.84,8.16,18.84,19,0,12.12-8.16,20.64-22,32.64l-18.48,16.2h21.72c6.6,0,8.4-.72,14.64-9.72l3,1.44c-2.52,5.16-5.64,11.76-7.8,16.68H369.27l.24-2.52c27.12-23.76,43.2-37.32,43.2-53,0-7.08-3.48-12.84-12.6-12.84-7.92,0-13.44,6.24-16.92,10.8L380.55,93Z"/></svg>