<svg xmlns="http://www.w3.org/2000/svg" viewBox="0 0 512 512"><defs><style>.cls-1{fill:#ff4d00;}.cls-2{fill:#222;}</style></defs><circle class="cls-1" cx="256" cy="256" r="221"/><path class="cls-2" d="M149,390q-13-25-4-58t8-98q-1-65-5-87t-12-38q-8-16,7-11a116.71,116.71,0,0,0,27,6q12,1,39-3t55-11q28-7,40-16t32-1q20,8,34,19t1,32q-13,21-11,106t3,123q1,38-14,67t-23-3q-8-32-13-43t-22-12q-17-1-58,5t-61,4Q162,415,149,390Zm23-33q50-2,83-13t45,4q12,15,21,12t9-83q0-80-2-126t-17-50q-15-4-139,22a924.42,924.42,0,0,1,6,106q22,0,54-13t54,0q22,13-33,23t-75,2Q174,299,172,357Z"/></svg>