<svg xmlns="http://www.w3.org/2000/svg" viewBox="0 0 512 512"><defs><style>.cls-1{fill:#ff4d00;}.cls-2{fill:#fff;}</style></defs><circle class="cls-1" cx="256" cy="256" r="221"/><path class="cls-2" d="M164.88,370.11q-11.1-21.27-3.4-49.39t6.81-83.45q-.89-55.34-4.26-74.09t-10.22-32.36q-6.83-13.6,6-9.37a99,99,0,0,0,23,5.11Q193,127.45,216,124t46.83-9.37q23.83-5.94,34.07-13.62t27.24-.86a118.39,118.39,0,0,1,29,16.18q11.9,9.39.85,27.25t-9.37,90.27q1.68,72.4,2.56,104.74T335.2,395.66q-12.78,24.66-19.59-2.56t-11.07-36.62q-4.28-9.33-18.74-10.21t-49.39,4.25q-34.92,5.12-51.94,3.41Q175.92,391.42,164.88,370.11ZM184.47,342q42.56-1.68,70.68-11.07t38.32,3.4q10.21,12.78,17.88,10.22T319,273.88q0-68.1-1.71-107.29T302.84,124q-12.78-3.39-118.37,18.73A786.37,786.37,0,0,1,189.58,233q18.72,0,46-11.07t46,0q18.72,11.1-28.1,19.58t-63.87,1.71Q186.15,292.64,184.47,342Z"/></svg>