<svg xmlns="http://www.w3.org/2000/svg" viewBox="0 0 512 512"><path d="M293.87 71.228l19.597-11.211c8.145-4.679 18.162-4.679 26.306 0l158.897 90.836c4.7 2.688 8.459 6.756 10.77 11.652l2.56 18.45-141.241 70.621L293.87 71.228z" fill="#ecf0f1"/><path d="M218.13 440.662l95.338 54.554a26.7 26.7 0 0 0 13.153 3.531V375.161l44.138-132.414-150.069-61.792-2.56 259.707z" fill="#e6e7e8"/><path d="M512 173.804v207.625a26.41 26.41 0 0 1-13.33 22.952l-158.897 90.836c-4.005 2.294-8.537 3.511-13.153 3.531V378.692l44.138-137.004 138.681-79.183A25.82 25.82 0 0 1 512 173.804h0z" fill="#bdc3c7"/><path d="M370.759 130.549v207.537a26.66 26.66 0 0 1-13.33 23.04l-158.897 90.748c-8.137 4.708-18.169 4.708-26.306 0L13.33 361.126A26.66 26.66 0 0 1 0 338.086V130.549c-.013-3.94.862-7.832 2.56-11.388h6.268L185.38 219.442c3.707 0 115.289-84.657 158.897-109.109 9.799-5.473 23.835 8.828 23.835 8.828h.088a26.24 26.24 0 0 1 2.559 11.388h0z" fill="#2c3e50"/><path d="M185.379 219.443v235.961a25.8 25.8 0 0 1-13.153-3.531L13.33 361.126A26.66 26.66 0 0 1 0 338.086V130.549c-.013-3.94.862-7.832 2.56-11.388h6.268l176.551 100.282z" fill="#556080"/><path d="M368.111 119.161l-169.313 96.75a27.26 27.26 0 0 1-26.836 0L2.648 119.161a26.16 26.16 0 0 1 10.681-11.652l158.897-90.748a26.41 26.41 0 0 1 26.306 0l158.897 90.748c4.677 2.69 8.408 6.76 10.682 11.652h0z" fill="#35495e"/><g fill="#b0d3f0"><ellipse cx="52.966" cy="212.248" rx="17.655" ry="26.483"/><ellipse cx="132.414" cy="265.214" rx="17.655" ry="26.483"/><ellipse cx="132.414" cy="362.317" rx="17.655" ry="26.483"/><ellipse cx="52.966" cy="309.352" rx="17.655" ry="26.483"/></g><g fill="#90bae1"><ellipse cx="317.793" cy="221.076" rx="17.655" ry="26.483"/><ellipse cx="238.345" cy="353.49" rx="17.655" ry="26.483"/></g><ellipse cx="185.379" cy="115.145" rx="26.483" ry="17.655" fill="#b0d3f0"/><g fill="#7f8c8d"><ellipse cx="423.724" cy="331.023" rx="17.655" ry="26.483"/><ellipse cx="397.242" cy="163.299" rx="26.483" ry="17.655"/></g></svg>