<svg id="Layer_1" enable-background="new 0 0 511.848 511.848" height="512" viewBox="0 0 511.848 511.848" width="512" xmlns="http://www.w3.org/2000/svg"><g><ellipse cx="270.214" cy="241.634" fill="#00c8c8" rx="126.731" ry="126.731" transform="matrix(.924 -.383 .383 .924 -71.9 121.8)"/><path d="m426.01 33.457c-24.03 0-43.581 19.55-43.581 43.581 0 24.03 19.551 43.581 43.581 43.581s43.58-19.55 43.58-43.581-19.55-43.581-43.58-43.581z" fill="#ffe274"/><g><path d="m67.323 181.289-28.76-8.54c14.52-48.893 45.016-92.869 85.871-123.826 42.24-32.005 92.649-48.923 145.78-48.923 38.423 0 75.173 8.765 109.229 26.052l-13.58 26.751c-29.808-15.131-61.989-22.803-95.649-22.803-46.535 0-90.68 14.812-127.661 42.834-35.8 27.127-62.517 65.643-75.23 108.455z" fill="#e0f4ff"/></g><g><path d="m339.098 473.284-8.539-28.759c42.812-12.713 81.328-39.43 108.455-75.23 28.022-36.982 42.834-81.127 42.834-127.662 0-37.226-9.802-73.833-28.347-105.865l25.963-15.031c21.186 36.594 32.384 78.399 32.384 120.896 0 53.131-16.917 103.541-48.923 145.78-30.958 40.856-74.934 71.352-123.827 85.871z" fill="#e0f4ff"/></g><g><path d="m201.33 473.284c-38.304-11.375-73.563-32.399-101.965-60.801s-49.427-63.661-60.801-101.965l28.759-8.54c9.957 33.532 28.373 64.409 53.255 89.292 24.883 24.883 55.76 43.298 89.292 53.256z" fill="#e0f4ff"/></g><path d="m270.214 424.686c-24.03 0-43.58 19.55-43.58 43.581 0 24.03 19.55 43.581 43.58 43.581s43.581-19.55 43.581-43.581-19.551-43.581-43.581-43.581z" fill="#ff637b"/><circle cx="43.581" cy="241.634" fill="#b9dd39" r="43.581"/><path d="m426.01 33.457c-24.03 0-43.581 19.55-43.581 43.581 0 24.03 19.551 43.581 43.581 43.581s43.58-19.55 43.58-43.581-19.55-43.581-43.58-43.581z" fill="#ffb62a"/><g><path d="m339.098 473.284-8.539-28.759c42.812-12.713 81.328-39.43 108.455-75.23 28.022-36.982 42.834-81.127 42.834-127.662 0-37.226-9.802-73.833-28.347-105.865l25.963-15.031c21.186 36.594 32.384 78.399 32.384 120.896 0 53.131-16.917 103.541-48.923 145.78-30.958 40.856-74.934 71.352-123.827 85.871z" fill="#bbdcff"/></g><path d="m396.945 241.634c0-69.88-56.852-126.731-126.731-126.731v253.462c69.88 0 126.731-56.852 126.731-126.731z" fill="#1cadb5"/><path d="m379.442 26.052c-34.055-17.287-70.805-26.052-109.228-26.052v30c33.66 0 65.841 7.672 95.648 22.803z" fill="#bbdcff"/><path d="m313.795 468.267c0-24.031-19.551-43.581-43.581-43.581v87.162c24.03-.001 43.581-19.551 43.581-43.581z" fill="#e63950"/></g></svg>